<?xml version="1.0" encoding="UTF-8" standalone="no"?>
<!-- Created with Inkscape (http://www.inkscape.org/) -->

<svg
   version="1.1"
   id="svg1"
   width="2048"
   height="1024"
   viewBox="0 0 2048 1024"
   xmlns="http://www.w3.org/2000/svg"
   xmlns:svg="http://www.w3.org/2000/svg">
  <defs
     id="defs1">
    <linearGradient
       id="swatch8">
      <stop
         style="stop-color:#000000;stop-opacity:1;"
         offset="0"
         id="stop8" />
    </linearGradient>
    <filter
       style="color-interpolation-filters:sRGB"
       id="filter241"
       x="-2.1257939"
       y="-2.0604889"
       width="5.2515883"
       height="5.1209779">
      <feGaussianBlur
         stdDeviation="100 100"
         result="fbSourceGraphic"
         id="feGaussianBlur241" />
      <feColorMatrix
         result="fbSourceGraphicAlpha"
         in="fbSourceGraphic"
         values="0 0 0 -1 0 0 0 0 -1 0 0 0 0 -1 0 0 0 0 1 0"
         id="feColorMatrix241" />
      <feGaussianBlur
         id="feGaussianBlur242"
         stdDeviation="100 100"
         result="fbSourceGraphic"
         in="fbSourceGraphic" />
      <feColorMatrix
         result="fbSourceGraphicAlpha"
         in="fbSourceGraphic"
         values="0 0 0 -1 0 0 0 0 -1 0 0 0 0 -1 0 0 0 0 1 0"
         id="feColorMatrix242" />
      <feGaussianBlur
         id="feGaussianBlur243"
         stdDeviation="100 100"
         result="fbSourceGraphic"
         in="fbSourceGraphic" />
      <feColorMatrix
         result="fbSourceGraphicAlpha"
         in="fbSourceGraphic"
         values="0 0 0 -1 0 0 0 0 -1 0 0 0 0 -1 0 0 0 0 1 0"
         id="feColorMatrix243" />
      <feGaussianBlur
         id="feGaussianBlur244"
         stdDeviation="100 100"
         result="fbSourceGraphic"
         in="fbSourceGraphic" />
      <feColorMatrix
         result="fbSourceGraphicAlpha"
         in="fbSourceGraphic"
         values="0 0 0 -1 0 0 0 0 -1 0 0 0 0 -1 0 0 0 0 1 0"
         id="feColorMatrix244" />
      <feGaussianBlur
         id="feGaussianBlur245"
         stdDeviation="100 100"
         result="fbSourceGraphic"
         in="fbSourceGraphic" />
      <feColorMatrix
         result="fbSourceGraphicAlpha"
         in="fbSourceGraphic"
         values="0 0 0 -1 0 0 0 0 -1 0 0 0 0 -1 0 0 0 0 1 0"
         id="feColorMatrix245" />
      <feGaussianBlur
         id="feGaussianBlur246"
         stdDeviation="100 100"
         result="fbSourceGraphic"
         in="fbSourceGraphic" />
      <feColorMatrix
         result="fbSourceGraphicAlpha"
         in="fbSourceGraphic"
         values="0 0 0 -1 0 0 0 0 -1 0 0 0 0 -1 0 0 0 0 1 0"
         id="feColorMatrix246" />
      <feGaussianBlur
         id="feGaussianBlur247"
         stdDeviation="100 100"
         result="blur"
         in="fbSourceGraphic" />
    </filter>
    <filter
       style="color-interpolation-filters:sRGB"
       id="filter283"
       x="-0.14996221"
       y="-0.14535512"
       width="1.2999249"
       height="1.2907102">
      <feGaussianBlur
         stdDeviation="49.187159"
         result="blur"
         id="feGaussianBlur283" />
    </filter>
    <filter
       style="color-interpolation-filters:sRGB"
       id="filter297"
       x="-0.27535071"
       y="-0.46710536"
       width="1.5507014"
       height="1.9342107">
      <feGaussianBlur
         stdDeviation="100 100"
         result="blur"
         id="feGaussianBlur297" />
    </filter>
    <filter
       style="color-interpolation-filters:sRGB;"
       id="filter3"
       x="-0.24678038"
       y="-0.51449246"
       width="1.4935608"
       height="2.0289849">
      <feGaussianBlur
         stdDeviation="100 100"
         result="blur"
         id="feGaussianBlur3" />
    </filter>
    <filter
       style="color-interpolation-filters:sRGB;"
       id="filter10"
       x="-0.10600354"
       y="-0.23970501"
       width="1.2120071"
       height="1.47941">
      <feGaussianBlur
         stdDeviation="45.994761"
         result="blur"
         id="feGaussianBlur10" />
    </filter>
    <filter
       style="color-interpolation-filters:sRGB"
       id="filter12"
       x="-0.30416898"
       y="-0.29482463"
       width="1.6083384"
       height="1.5896493">
      <feGaussianBlur
         stdDeviation="99.980831"
         result="blur"
         id="feGaussianBlur12" />
    </filter>
  </defs>
  <g
     id="g235"
     style="display:inline">
    <path
       id="path284"
       style="display:inline;fill:#ffffff;fill-opacity:1;stroke:none;stroke-width:1.41421;stroke-opacity:1"
       d="m 0,0 v 512 512 H 1024 2048 V 512 0 H 1024 Z M 8,8 H 2040 V 1016 H 8 V 10 Z" />
    <path
       id="path241"
       style="display:inline;opacity:1;fill:#000000;fill-opacity:1;stroke:none;stroke-width:1.41981;stroke-opacity:1"
       d="M 8,10 V 1016 H 2040 V 8 H 8 Z" />
    <path
       id="path283"
       style="display:inline;fill:#ffffff;fill-opacity:0.5;stroke:#000000;stroke-width:0.999982;stroke-opacity:1;filter:url(#filter283)"
       d="m 491.08008,107.13477 c -29.69365,0.22238 -59.54073,3.5027 -88.07813,11.95703 -20.77908,6.10016 -40.38853,16.26387 -57.16881,29.97386 -18.38664,14.87065 -33.7407,33.80886 -43.12611,55.60231 -3.90847,9.18758 -6.67379,18.87154 -8.08008,28.75976 -10.33498,2.3616 -20.00322,6.82018 -29.88136,10.54973 -27.88121,10.87342 -55.80616,21.66258 -83.7759,32.2733 -24.00022,9.75044 -44.03349,28.36562 -56.43277,51.01811 -12.23263,22.19999 -17.81331,48.17699 -14.91882,73.41684 0.96468,7.57815 2.57636,15.14603 3.94245,22.59749 3.01056,16.6078 6.12194,33.19779 9.17206,49.79861 18.15988,98.33432 36.2546,196.68059 54.18003,295.05793 3.69341,20.1136 7.30683,40.24338 11.14571,60.32867 2.97098,13.24707 9.09909,25.60679 16.65445,36.81653 10.72434,15.83981 24.78383,29.46884 41.19621,39.33473 15.63705,9.47908 33.36368,15.63351 51.60464,17.28974 12.78859,1.24128 25.65044,0.64214 38.47541,0.75245 120.01989,0.0684 240.03988,0.055 360.05974,0.0321 11.67676,-0.0692 23.37908,-1.462 34.63345,-4.63076 24.27973,-6.66133 46.58711,-20.55082 62.99061,-39.68599 13.56114,-15.69569 23.27737,-34.86269 27.03258,-55.31718 2.13222,-11.04452 3.84808,-22.16412 5.88372,-33.22666 10.68674,-60.62211 21.96221,-121.13603 33.34236,-181.63243 11.3104,-60.3013 22.7295,-120.58143 33.87929,-180.91223 1.4894,-8.14794 3.02388,-16.2886 4.42076,-24.45242 4.90866,-34.22067 -5.89061,-70.39128 -28.93182,-96.19307 -10.63565,-11.99154 -23.89476,-21.72013 -38.47748,-28.27018 -14.33305,-6.70904 -29.12363,-12.36708 -43.87251,-18.08232 -19.83963,-7.61613 -39.76176,-15.01092 -59.50209,-22.83856 -4.68583,-1.84385 -9.45489,-3.51793 -14.3754,-4.61819 -2.02229,-14.13909 -6.2095,-28.07516 -13.26238,-40.54418 -11.26718,-20.66084 -28.27802,-37.87026 -47.88697,-50.72419 -22.70659,-14.94314 -48.74687,-24.31347 -75.37072,-29.32952 -21.01989,-4.01278 -42.47695,-5.16301 -63.84282,-5.02554 -7.20972,-0.0405 -14.41941,-0.0991 -21.6293,-0.0758 z" />
    <path
       id="Black-7"
       style="display:inline;fill:#ffffff;fill-opacity:1;stroke:none;stroke-width:0.999982;stroke-opacity:1"
       d="m 484.20703,161.31641 c -18.02988,0.51487 -36.06744,2.36619 -53.66651,6.40402 -13.07144,2.94675 -25.98354,7.23255 -37.5153,14.16783 -12.17276,7.22086 -22.99169,16.79458 -31.42,28.17988 -5.89251,7.97336 -10.49782,17.00603 -12.69066,26.71367 -0.91337,3.93914 -1.26114,7.98948 -2.32617,11.89761 -1.61316,6.51868 -4.43285,12.77269 -8.58104,18.07701 -7.75077,10.11603 -19.33093,17.15994 -31.83446,19.55441 -7.24103,1.97913 -14.11002,5.06521 -21.12509,7.69279 -28.69285,11.1722 -57.47002,22.12746 -86.10544,33.44052 -8.29724,3.76808 -15.43004,9.82587 -21.08631,16.92095 -8.13078,10.31845 -13.11006,23.01681 -14.54714,36.05086 -0.69868,6.44837 -0.35338,12.98647 0.85623,19.35335 2.7074,14.98745 5.49745,29.96056 8.23859,44.94234 21.44368,116.63111 42.85706,233.26798 64.34202,349.89138 1.45316,7.7531 2.84053,15.52032 4.45105,23.24215 1.5365,6.1509 4.7383,11.72517 8.18835,16.98516 8.44144,12.56764 20.45156,22.84456 34.50326,28.60302 7.5609,3.12679 15.69978,4.83434 23.88151,4.98716 7.33798,0.2563 14.68315,0.186 22.02461,0.2204 94.60403,0.0556 189.20808,0.0105 283.81211,-0.0223 28.86887,-0.0148 57.73842,-0.0287 86.60681,-0.10845 22.76135,-0.9625 44.84364,-13.0994 57.59571,-32.0208 5.54547,-8.13856 9.11311,-17.57404 10.52629,-27.31097 11.50394,-65.14748 23.41562,-130.21288 35.62377,-195.23527 12.88317,-68.9745 25.88968,-137.92773 38.57041,-206.93879 0.81054,-4.6222 1.72008,-9.23014 2.38925,-13.87497 1.2756,-11.07761 -0.58324,-22.43165 -4.84909,-32.70389 -5.05291,-12.09936 -13.78938,-22.79022 -25.15231,-29.45496 -7.11267,-4.20353 -14.8668,-7.13386 -22.45422,-10.34168 -20.08131,-8.26354 -40.46299,-15.76753 -60.71224,-23.60553 -9.86242,-3.75084 -19.66918,-7.66264 -29.64285,-11.10987 -6.63014,-1.92436 -13.47504,-3.01086 -20.18248,-4.57914 -1.35642,-0.29438 -2.60338,-0.57383 -3.89556,-0.89879 -2.56803,-0.64574 -5.17825,-1.40935 -7.31137,-3.04599 -4.62391,-3.32336 -7.49503,-8.80413 -7.91639,-14.45174 -1.4325,-10.01051 -2.60675,-20.07319 -4.69129,-29.97596 -2.5812,-11.19467 -8.82583,-21.22788 -16.43583,-29.70342 -11.47778,-12.69085 -26.34942,-21.92526 -42.11294,-28.34216 -19.95086,-8.12304 -41.42954,-11.88948 -62.86374,-13.09472 -14.32058,-0.74901 -28.66842,-0.59292 -43.00365,-0.62145 -3.16384,-0.0218 -6.32566,0.0105 -9.48789,0.11633 z" />
    <path
       style="display:inline;fill:#d0d2d3"
       d="m 654.64034,441.59616 58.20465,34.10314 -9.039,11.53396 c 1.26804,-10.64065 -7.69649,-25.03012 -23.70335,-15.11358 -25.05418,58.72336 -110.40509,289.68553 -110.40509,289.68553 z M 439.06748,761.89944 C 396.28273,659.19844 329.22474,473.85122 329.22474,473.85122 c -3.88289,-7.14926 -24.53425,-5.70273 -25.06404,8.69517 l -6.30537,-7.72136 53.70273,-36.03838 z M 460.93813,392 c -10.71596,11.70152 -37.10053,42.07094 -48.61119,52.73703 -5.75656,3.65669 -13.45214,3.56841 -20.38118,-1.48854 L 383.68786,421.3379 450.49866,382 Z m 96.52155,-7.38844 71.61971,36.57199 -12.64415,20.34766 c -16.61808,10.26637 -18.57223,4.64149 -32.07626,-9.01119 0,0 -20.52844,-20.80817 -34.40125,-38.52002 z"
       id="path240" />
    <path
       style="display:inline;fill:#c71114"
       d="m 466.44409,742.27735 -23.56767,-89.98834 26.24067,-239.16782 1.40756,-56.24873 33.84631,-37.95304 32.30769,36.18055 0.98929,57.29252 27.90253,237.4537 -24.68636,90.47131 -36.42579,72.72089 z"
       id="Dark_Red" />
    <path
       style="display:inline;fill:#f62425"
       d="m 446.23459,650.33538 24.36545,-231.44065 c 10.16942,7.41077 20.73662,9.91456 32.42567,10.37529 l 0.0184,373.729 C 480.51477,749.93176 462.27833,704.17041 446.23459,650.33538 Z m 30.90241,-293.34426 25.89928,-29.61768 -0.0225,54.34682 C 492.73075,381.31759 481.59015,370.30528 477.137,356.99112 Z"
       id="path238" />
    <path
       style="display:inline;fill:#010101"
       d="M 240.31406,815.27179 C 225.61829,733.32926 188.17517,528.7118 163.0037,394.05361 c -2.37358,-27.48954 12.21015,-57.12634 38.32896,-67.88371 33.9775,-12.52078 63.70232,-24.30707 98.06271,-37.77777 20.1931,-8.40651 25.64275,1.75802 20.02692,21.68181 -5.52568,21.854 -20.18197,77.6416 -19.36599,84.69668 1.07928,7.50398 21.84638,13.36248 30.89933,17.20283 l 15.35169,6.73978 0.37091,-15.28042 c 0.5973,-54.66042 -0.72134,-104.69989 0.93688,-159.17962 3.05288,-33.90206 37.20085,-63.60576 68.94644,-72.87427 31.94449,-9.69306 62.97138,-11.007 95.59201,-10.04953 43.51647,-1.24418 94.10785,6.73745 126.39654,38.37447 20.63858,21.73838 22.3092,36.74376 22.75139,68.23881 0.71344,50.34074 0.51369,99.76104 0.90299,150.59472 15.16544,-6.44641 39.82528,-17.21643 45.42468,-20.24935 2.86338,-3.61188 -13.90594,-69.37499 -21.3832,-101.1393 -0.62281,-12.56858 8.71123,-13.93497 18.61503,-10.67321 31.26909,13.38896 101.08602,36.44854 114.86689,47.50465 21.08461,15.86456 30.167,43.50667 23.59771,68.99204 -24.76885,136.8882 -52.32151,273.49196 -75.69006,410.6365 -4.68772,25.40066 -31.12099,55.23357 -72.08631,55.12288 -130.41018,-0.16719 -255.35093,0.23628 -386.03182,-0.0872 -41.83863,-0.29683 -65.90966,-36.39552 -69.20334,-53.37261 z m 222.54637,5.33517 C 460.46251,813.47112 457.1057,807.1329 452.40965,794.2679 411.4387,698.44337 381.42576,598.44339 360.10721,496.48699 c -3.75569,-17.39141 -7.11589,-33.57282 -10.06865,-49.83691 0,0 -40.28782,22.47383 -42.27387,26.27059 -8.63658,13.69811 -0.0996,20.71909 6.93321,45.52126 34.78825,99.55008 71.85009,198.02237 106.85494,297.66112 0,0 2.82924,10.66367 20.31575,10.18939 4.22514,-0.0249 9.57796,-0.0918 15.86685,-0.11755 4.36534,-0.0179 5.58149,-4.20946 5.12499,-5.56793 z m 117.17936,3.03708 c 8.04439,-4.64699 12.44124,-23.86871 18.23164,-40.15455 35.18814,-98.51844 71.44312,-197.17552 104.98766,-296.23593 3.84063,-17.87488 -15.88244,-22.4141 -28.94213,-30.42444 l -16.66582,-9.83985 c 0,0 -1.68031,9.89263 -2.50725,15.36512 -23.30604,117.47929 -54.27214,229.04986 -101.57032,339.06856 -2.14385,4.85114 -8.39636,17.83267 -7.98166,20.40447 0.748,3.67978 2.56814,4.73932 12.86699,4.44305 8.65084,-0.18411 15.37562,0.17444 21.58089,-2.62643 z M 566.55387,645.39485 c 18.86602,-60.72628 33.97326,-122.98795 46.0947,-185.66648 1.96176,-9.85026 3.07777,-22.12901 4.08391,-31.28664 -9.69941,5.93538 -15.90334,7.92076 -26.14219,-4.20318 -10.79578,-12.22485 -22.28008,-26.15508 -33.25963,-38.0804 -1.34094,10.80523 -14.84404,28.66712 -29.28724,35.21948 -22.63505,11.4759 -53.72503,4.54477 -68.17438,-16.70562 -7.38654,-8.93896 -9.62674,-18.67971 -9.62674,-18.67971 0,0 -17.81976,19.18418 -35.32052,41.06301 -3.53087,3.71731 -7.59531,5.94581 -10.52701,5.78495 -7.54815,-0.35326 -13.74389,-4.97767 -13.74389,-4.97767 l 1.25084,12.84982 c 11.69182,68.70768 27.13343,139.22683 49.7305,205.09404 17.21357,56.758 28.89318,89.89518 62.01663,164.59124 31.8387,-64.91183 58.61976,-152.45903 62.90502,-165.00284 z M 539.48884,298.45509 c 24.77909,31.04846 52.03645,62.43866 79.5616,94.04824 0,0 -0.59879,-110.2654 -0.57422,-136.38982 -24.20289,25.90224 -39.52564,32.68901 -78.98738,42.34158 z m -71.1606,-0.71566 c -39.11805,-7.87093 -59.38947,-19.13786 -78.70269,-41.4021 -0.26183,45.53581 0.35315,89.88723 0.35315,134.4704 26.00296,-29.79225 53.01267,-62.05702 78.34954,-93.0683 z m 37.0599,86.17439 c 13.56019,0.18562 22.87274,-10.44289 28.3151,-27.08712 -8.74867,-11.01375 -29.21455,-35.25286 -29.21455,-35.25286 l -30.20136,35.31255 c 5.86847,17.40881 16.50104,26.82142 31.10081,27.02743 z m 87.48199,-161.87683 c -0.86507,-7.34171 -34.54935,-16.58927 -83.06022,-18.10121 -48.1253,1.18173 -89.4063,6.78787 -95.49927,16.94311 6.47818,15.43379 36.71602,37.5919 89.38913,37.36881 56.41549,0.95008 88.4403,-28.2631 89.17036,-36.21071 z"
       id="Black" />
    <text
       xml:space="preserve"
       style="font-style:normal;font-variant:normal;font-weight:normal;font-stretch:normal;font-size:233.333px;font-family:'Open Sans';-inkscape-font-specification:'Open Sans';letter-spacing:25px;writing-mode:lr-tb;display:none;opacity:1;mix-blend-mode:normal;fill:#ffffff;fill-opacity:1;stroke:#000000;stroke-width:10;stroke-dasharray:none;stroke-dashoffset:0;stroke-opacity:1;paint-order:normal"
       x="941.95923"
       y="448.31876"
       id="text3"><tspan
         id="tspan2"
         x="941.95923"
         y="448.31876"
         style="font-style:normal;font-variant:normal;font-weight:normal;font-stretch:normal;font-size:233.333px;font-family:'Open Sans';-inkscape-font-specification:'Open Sans';letter-spacing:25px;fill:#ffffff;fill-opacity:1;stroke:#000000;stroke-width:10;stroke-dasharray:none;stroke-dashoffset:0;stroke-opacity:1">VERIFY</tspan><tspan
         x="941.95923"
         y="739.98499"
         id="tspan3"
         style="font-style:normal;font-variant:normal;font-weight:normal;font-stretch:normal;font-size:233.333px;font-family:'Open Sans';-inkscape-font-specification:'Open Sans';letter-spacing:25px;fill:#ffffff;fill-opacity:1;stroke:#000000;stroke-width:10;stroke-dasharray:none;stroke-dashoffset:0;stroke-opacity:1">GUARDS</tspan></text>
    <g
       id="text15"
       style="font-size:233.333px;font-family:'Open Sans';-inkscape-font-specification:'Open Sans';letter-spacing:25px;display:inline;fill:#ffffff;stroke:#000000;stroke-width:10"
       aria-label="VERIFY&#10;GUARDS">
      <path
         d="m 1059.9929,281.74999 h 20.8496 l -60.0422,166.56877 h -19.1406 L 941.95923,281.74999 h 20.50778 l 38.28119,107.77979 q 6.6081,18.57094 10.4818,36.11648 4.1015,-18.457 10.7096,-36.80007 z m 161.6046,166.56877 h -92.8547 V 281.74999 h 92.8547 v 17.20375 h -73.4862 v 53.66203 h 69.0429 v 17.08982 h -69.0429 v 61.29548 h 73.4862 z m 81.2825,-69.27074 v 69.27074 h -19.3685 V 281.74999 h 45.6868 q 30.6478,0 45.2311,11.73501 14.6972,11.73501 14.6972,35.31896 0,33.04031 -33.496,44.66139 l 45.231,74.85341 h -22.9003 l -40.332,-69.27074 z m 0,-16.63409 h 26.5462 q 20.5078,0 30.0781,-8.08918 9.5703,-8.20311 9.5703,-24.4954 0,-16.52016 -9.7982,-23.81182 -9.6842,-7.29165 -31.2174,-7.29165 h -25.179 z m 149.8696,85.90483 V 281.74999 h 19.3685 v 166.56877 z m 109.4237,0 h -19.3685 V 281.74999 h 92.8547 v 17.20375 h -73.4862 v 60.95369 h 69.0429 v 17.20375 h -69.0429 z m 168.4406,-83.28439 44.4335,-83.28438 h 20.9635 l -55.5989,101.96925 v 64.59952 h -19.5963 V 384.6307 l -55.485,-102.88071 h 21.1914 z"
         id="path3" />
      <path
         d="m 1038.1179,652.71299 h 56.6243 v 81.00574 q -13.2161,4.21549 -26.888,6.3802 -13.6718,2.16471 -31.6731,2.16471 -37.82547,0 -58.90291,-22.44463 -21.07745,-22.55856 -21.07745,-63.1184 0,-25.97652 10.36783,-45.45891 10.48175,-19.59633 30.07808,-29.85022 19.59635,-10.36782 45.91465,-10.36782 26.6601,0 49.6744,9.79816 l -7.5195,17.08982 q -22.5586,-9.5703 -43.4082,-9.5703 -30.4198,0 -47.50965,18.11521 -17.08982,18.1152 -17.08982,50.24406 0,33.72391 16.40622,51.15553 16.52015,17.43161 48.42115,17.43161 17.3177,0 33.8378,-3.98762 v -51.26946 h -37.2558 z m 247.3956,-79.29676 v 107.77979 q 0,28.48303 -17.2038,44.77533 -17.2037,16.29229 -47.2818,16.29229 -30.0781,0 -46.5983,-16.40623 -16.4062,-16.40622 -16.4062,-45.11712 V 573.41623 h 19.3685 v 108.69125 q 0,20.84958 11.3932,32.01492 11.3932,11.16535 33.496,11.16535 21.0775,0 32.4707,-11.16535 11.3932,-11.27928 11.3932,-32.24279 V 573.41623 Z m 171.5167,166.56877 -20.7357,-52.97844 h -66.7642 l -20.5078,52.97844 h -19.5963 l 65.8527,-167.25236 h 16.2923 l 65.511,167.25236 z m -26.7741,-70.41006 -19.3685,-51.61125 q -3.7597,-9.79816 -7.7473,-24.03968 -2.5065,10.93749 -7.1778,24.03968 l -19.5963,51.61125 z m 114.0949,1.13932 V 739.985 h -19.3684 V 573.41623 h 45.6868 q 30.6477,0 45.231,11.73501 14.6973,11.73501 14.6973,35.31896 0,33.04031 -33.4961,44.66139 l 45.2311,74.85341 h -22.9004 l -40.332,-69.27074 z m 0,-16.63409 h 26.5462 q 20.5078,0 30.0781,-8.08918 9.5703,-8.20311 9.5703,-24.4954 0,-16.52016 -9.7982,-23.81182 -9.6842,-7.29165 -31.2174,-7.29165 h -25.179 z m 282.8285,1.02539 q 0,41.24343 -22.4447,63.1184 -22.3307,21.76104 -64.3716,21.76104 h -46.1425 V 573.41623 h 51.0416 q 38.8508,0 60.384,21.53317 21.5332,21.53317 21.5332,60.15616 z m -20.5078,0.6836 q 0,-32.58459 -16.4062,-49.10475 -16.2923,-16.52016 -48.5351,-16.52016 h -28.1413 v 133.07272 h 23.584 q 34.6353,0 52.067,-16.97588 17.4316,-17.08982 17.4316,-50.47193 z m 176.6436,39.87624 q 0,21.9889 -15.9505,34.29357 -15.9505,12.30467 -43.2942,12.30467 -29.6223,0 -45.5728,-7.63345 v -18.68487 q 10.2539,4.32942 22.3307,6.83593 12.0768,2.5065 23.9257,2.5065 19.3685,0 29.1666,-7.29165 9.7982,-7.40559 9.7982,-20.50779 0,-8.65884 -3.5319,-14.12758 -3.418,-5.58267 -11.6211,-10.25389 -8.0892,-4.67122 -24.7232,-10.59569 -23.2422,-8.31704 -33.2682,-19.71026 -9.9121,-11.39321 -9.9121,-29.73628 0,-19.25453 14.4694,-30.64774 14.4693,-11.39321 38.2811,-11.39321 24.8373,0 45.6868,9.11457 l -6.0384,16.86195 q -20.6217,-8.65884 -40.1041,-8.65884 -15.3808,0 -24.0397,6.60806 -8.6588,6.60806 -8.6588,18.34307 0,8.65885 3.1901,14.24152 3.1901,5.46874 10.7096,10.13996 7.6335,4.55728 23.2422,10.13996 26.2044,9.34243 36.0025,20.05205 9.9121,10.70962 9.9121,27.79944 z"
         id="path4" />
    </g>
  </g>
</svg>
